HIERARCHY
ROOT Hips
{
	OFFSET 0.000000 0.000000 0.000000 
	CHANNELS 6 Xposition Yposition Zposition Yrotation Zrotation Xrotation 
	JOINT Lumbar
	{
		OFFSET 0.000000 0.000000 0.000000 
		CHANNELS 3 Zrotation Xrotation Yrotation
		JOINT Neck
		{
			OFFSET 0.000000 0.445665 0.000000 
			CHANNELS 3 Zrotation Xrotation Yrotation
			End Site
			{
				OFFSET 0.000000 0.227535 0.000000 
			}
		}
		JOINT RightShoulder
		{
			OFFSET 0.019635 0.377685 0.194865 
			CHANNELS 3 Zrotation Xrotation Yrotation
			JOINT RightElbow
			{
				OFFSET 0.000000 -0.243375 0.000000 
				CHANNELS 2 Zrotation Yrotation
				JOINT RightWrist
				{
					OFFSET 0.000000 -0.264825 0.000000 
					CHANNELS 2 Zrotation Xrotation
					End Site
					{
						OFFSET 0.006600 -0.176220 0.000990 
					}
				}
			}
		}
		JOINT LeftShoulder
		{
			OFFSET 0.019635 0.377685 -0.194865 
			CHANNELS 3 Zrotation Xrotation Yrotation
			JOINT LeftElbow
			{
				OFFSET 0.000000 -0.243375 0.000000 
				CHANNELS 2 Zrotation Yrotation
				JOINT LeftWrist
				{
					OFFSET 0.000000 -0.264825 0.000000 
					CHANNELS 2 Zrotation Xrotation
					End Site
					{
						OFFSET 0.006600 -0.176220 -0.000990 
					}
				}
			}
		}
	}
	JOINT RightHip
	{
		OFFSET 0.052140 -0.069960 0.075570 
		CHANNELS 3 Zrotation Xrotation Yrotation
		JOINT RightKnee
		{
			OFFSET 0.000000 -0.402270 0.000000 
			CHANNELS 1 Zrotation
			JOINT RightAnkle
			{
				OFFSET 0.000000 -0.404085 0.000000 
				CHANNELS 3 Zrotation Xrotation Yrotation
				End Site
				{
					OFFSET 0.204105 -0.089430 0.008415 
				}
			}
		}
	}
	JOINT LeftHip
	{
		OFFSET 0.052140 -0.069960 -0.075570 
		CHANNELS 3 Zrotation Xrotation Yrotation
		JOINT LeftKnee
		{
			OFFSET 0.000000 -0.402270 0.000000 
			CHANNELS 1 Zrotation
			JOINT LeftAnkle
			{
				OFFSET 0.000000 -0.404085 0.000000 
				CHANNELS 3 Zrotation Xrotation Yrotation
				End Site
				{
					OFFSET 0.204105 -0.089430 -0.008415 
				}
			}
		}
	}
}
MOTION
Frames: 31
Frame Time: 0.02
0.00095 0.00021 0.00168 17.74848 -33.00333 -3.24466 56.70992 -0.15824 1.99216 -6.72517 -2.15524 -0.14045 137.62691 -78.17707 -69.49625 14.41465 100.72879 -0.56662 -10.04513 148.69466 76.68316 85.55451 9.06581 -69.40173 5.20175 8.67788 49.50564 -1.00326 1.37215 -19.82033 -9.00305 -5.59919 -3.78363 50.69543 4.61596 0.63214 -24.02892 -9.43905 5.44306 3.74021
0.00143 0.00024 0.00148 17.69923 -33.02588 -3.30688 56.80441 -0.14265 1.90066 -6.7422 -2.00703 -0.14094 136.50277 -78.1561 -70.3658 14.25889 100.82859 -0.5707 -10.01122 148.95094 76.66672 85.45194 9.10459 -69.40445 5.19459 8.68594 49.48906 -0.9888 1.15657 -19.80111 -8.96965 -5.59107 -3.77236 50.68219 4.72233 0.90505 -24.02749 -9.39617 5.43093 3.72664
0.00192 0.00027 0.00129 17.65015 -33.04836 -3.36893 56.89866 -0.12707 1.80932 -6.75923 -1.85919 -0.14142 135.38087 -78.13514 -71.23348 14.10343 100.92813 -0.57485 -9.97739 149.2063 76.65038 85.34977 9.14332 -69.40714 5.18744 8.69412 49.47248 -0.97455 0.94071 -19.78194 -8.93624 -5.58291 -3.76107 50.66894 4.8284 1.17738 -24.02606 -9.35338 5.41882 3.71309
0.0024 0.0003 0.00109 17.60105 -33.07084 -3.43096 56.99287 -0.11153 1.71808 -6.77621 -1.71141 -0.1419 134.25998 -78.11422 -72.10049 13.94813 101.02763 -0.57894 -9.94357 149.4618 76.634 85.24751 9.18199 -69.40985 5.1803 8.70219 49.45595 -0.96015 0.72563 -19.76278 -8.90293 -5.57481 -3.74983 50.65573 4.93445 1.44949 -24.02462 -9.31062 5.40672 3.69955
0.00288 0.00033 0.00089 17.55178 -33.09339 -3.49316 57.08728 -0.09599 1.62673 -6.7932 -1.56331 -0.14239 133.13736 -78.09332 -72.96902 13.79261 101.12736 -0.58293 -9.90967 149.71819 76.61748 85.14486 9.22066 -69.41259 5.17317 8.71007 49.43943 -0.94547 0.51119 -19.74356 -8.86966 -5.56679 -3.73861 50.64253 5.04078 1.7221 -24.02318 -9.26781 5.39462 3.686
0.00336 0.00037 0.00069 17.50313 -33.11572 -3.55488 57.18121 -0.08033 1.53543 -6.8103 -1.41604 -0.14287 132.01708 -78.07223 -73.83484 13.6373 101.22649 -0.58739 -9.87598 149.97132 76.60152 85.04376 9.25953 -69.41517 5.16597 8.71886 49.42273 -0.93213 0.29237 -19.7245 -8.83597 -5.55832 -3.72719 50.6292 5.14632 1.99383 -24.02178 -9.22506 5.38248 3.67246
0.00385 0.0004 0.0005 17.45325 -33.13847 -3.6175 57.27602 -0.06494 1.44411 -6.82714 -1.26723 -0.14336 130.89321 -78.05152 -74.70522 13.48171 101.32673 -0.59092 -9.84193 150.23092 76.58448 84.93949 9.29797 -69.41811 5.15891 8.72586 49.40644 -0.91611 0.08257 -19.70516 -8.80317 -5.55077 -3.71619 50.61615 5.25333 2.267 -24.0203 -9.18223 5.37044 3.6589
0.00433 0.00043 0.0003 17.40455 -33.16081 -3.67927 57.36999 -0.0493 1.35283 -6.84424 -1.11989 -0.14384 129.77287 -78.03051 -75.57129 13.32641 101.42596 -0.59528 -9.80818 150.48423 76.5684 84.83847 9.33677 -69.42065 5.15172 8.73443 49.38973 -0.90257 -0.13551 -19.68607 -8.76956 -5.54237 -3.7048 50.60281 5.35898 2.53889 -24.01889 -9.13946 5.35829 3.64536
0.0048 0.00046 0.0001 17.35709 -33.18278 -3.74009 57.46311 -0.03333 1.26148 -6.86159 -0.97409 -0.14431 128.6553 -78.00891 -76.43303 13.17127 101.52394 -0.60078 -9.77488 150.73121 76.55361 84.74007 9.37621 -69.42293 5.14439 8.74528 49.37263 -0.89203 -0.36408 -19.66727 -8.73488 -5.5329 -3.69292 50.58923 5.46305 2.80921 -24.01756 -9.0968 5.34604 3.63186
0.0053 0.00049 -7e-05 17.30189 -33.20725 -3.80664 57.56163 -0.01918 1.17016 -6.87732 -0.81866 -0.14483 127.5171 -77.99004 -77.32253 13.01463 101.62905 -0.60012 -9.73924 151.01873 76.53174 84.62252 9.41256 -69.42739 5.13792 8.74411 49.35817 -0.86412 -0.53343 -19.64676 -8.70609 -5.52949 -3.68383 50.57738 5.57645 3.08855 -24.01578 -9.0536 5.33449 3.61816
0.00576 0.00053 -0.00031 17.26342 -33.22622 -3.86096 57.64841 -0.00123 1.07901 -6.89655 -0.68405 -0.14524 126.42564 -77.96585 -78.15147 12.86154 101.71915 -0.61217 -9.7084 151.21806 76.5246 84.54796 9.45502 -69.42684 5.12958 8.76758 49.33787 -0.87293 -0.82689 -19.62989 -8.66504 -5.51339 -3.66888 50.56167 5.66999 3.34879 -24.01494 -9.01152 5.3214 3.60486
0.00611 0.00057 -0.00075 17.26792 -33.23155 -3.88259 57.70535 0.02768 0.9866 -6.92481 -0.6029 -0.14534 125.43513 -77.92348 -78.82945 12.71476 101.76719 -0.66193 -9.69211 151.19291 76.5602 84.56865 9.51767 -69.41566 5.11594 8.86519 49.30354 -0.98307 -1.47157 -19.62287 -8.58859 -5.46124 -3.63729 50.53672 5.70994 3.55687 -24.0166 -8.97264 5.30441 3.59284
0.00641 0.00062 -0.00126 17.28978 -33.23103 -3.89177 57.74997 0.06031 0.89474 -6.95673 -0.5434 -0.14532 124.49564 -77.87655 -79.44374 12.57209 101.80019 -0.72393 -9.68044 151.07471 76.61029 84.63482 9.58563 -69.39876 5.10002 8.98619 49.26294 -1.12999 -2.23893 -19.61954 -8.50013 -5.39655 -3.59991 50.5076 5.72972 3.74563 -24.0192 -8.93488 5.28583 3.58119
0.00673 0.00067 -0.00173 17.30562 -33.23232 -3.90613 57.79873 0.09092 0.80369 -6.98729 -0.47634 -0.14534 123.55186 -77.83391 -80.07731 12.42983 101.84078 -0.77853 -9.66573 150.98926 76.65203 84.69742 9.6492 -69.38261 5.08584 9.09245 49.22399 -1.25966 -2.94321 -19.61461 -8.41831 -5.33841 -3.56551 50.47952 5.75819 3.94323 -24.02138 -8.89649 5.26774 3.56924
0.00706 0.00072 -0.0022 17.31356 -33.2374 -3.92255 57.85392 0.12299 0.70791 -7.01638 -0.39946 -0.14539 122.53235 -77.78145 -80.75178 12.27825 101.87865 -0.84095 -9.65481 150.94901 76.70064 84.69573 9.72197 -69.37478 5.07053 9.21677 49.19028 -1.3916 -3.67864 -19.60931 -8.33149 -5.27672 -3.52959 50.45517 5.78883 4.14102 -24.02352 -8.85852 5.25058 3.5578
0.00737 0.00076 -0.0027 17.34215 -33.2329 -3.93162 57.89243 0.15281 0.62243 -7.04965 -0.34844 -0.14537 121.67775 -77.7489 -81.3257 12.14669 101.91799 -0.88992 -9.63731 150.78612 76.73916 84.82895 9.77579 -69.34761 5.05472 9.30817 49.14395 -1.52762 -4.37829 -19.60574 -8.25223 -5.21939 -3.49548 50.42189 5.80995 4.33324 -24.02602 -8.82009 5.23118 3.54544
0.00763 0.00077 -0.00326 17.42268 -33.20574 -3.92448 57.89092 0.17624 0.56263 -7.09152 -0.36116 -0.14506 121.28904 -77.76756 -81.64057 12.07133 101.96927 -0.90033 -9.59968 150.34528 76.74104 85.36776 9.78506 -69.27139 5.05297 9.3078 49.06621 -1.66475 -4.94713 -19.60529 -8.19699 -5.17792 -3.4679 50.36651 5.81167 4.51995 -24.02879 -8.77874 5.2054 3.53006
0.00786 0.00077 -0.00383 17.52355 -33.16863 -3.91016 57.87236 0.1971 0.51376 -7.13788 -0.39958 -0.14473 121.04702 -77.80716 -81.85636 12.01475 102.02097 -0.89715 -9.55617 149.76522 76.73423 86.00519 9.77347 -69.17366 5.04467 9.271 48.9757 -1.80481 -5.47524 -19.60669 -8.1498 -5.14122 -3.44238 50.30201 5.80414 4.70079 -24.03202 -8.73714 5.17754 3.51383
0.0081 0.00078 -0.00439 17.61566 -33.13459 -3.89845 57.85983 0.21873 0.46152 -7.18353 -0.42776 -0.14443 120.73947 -77.84057 -82.115 11.94943 102.07075 -0.89834 -9.5149 149.23924 76.73355 86.60316 9.76535 -69.08596 5.03385 9.24967 48.88972 -1.9444 -6.02424 -19.60755 -8.09869 -5.10176 -3.41582 50.2407 5.79958 4.88099 -24.03534 -8.69653 5.15104 3.49826
0.00836 0.00079 -0.00497 17.70637 -33.10673 -3.88914 57.85469 0.24236 0.40223 -7.22366 -0.45062 -0.1439 120.48307 -77.8604 -82.37875 11.88868 102.1306 -0.90493 -9.4725 148.79788 76.72006 87.29222 9.78239 -69.00386 5.05988 9.2402 48.80864 -2.08209 -6.57071 -19.60677 -8.04796 -5.06407 -3.38933 50.18329 5.79956 5.07449 -24.03732 -8.65226 5.12276 3.48155
0.00857 0.0008 -0.00552 17.80457 -33.06338 -3.87318 57.82954 0.26093 0.36063 -7.27635 -0.49039 -0.14401 120.08641 -77.91275 -82.61147 11.81834 102.16562 -0.90021 -9.43491 148.08687 76.73614 87.67376 9.7425 -68.89643 4.9904 9.18896 48.71471 -2.2234 -7.10713 -19.61042 -7.99887 -5.02436 -3.36346 50.11561 5.78811 5.2391 -24.04235 -8.61557 5.09771 3.467
0.00864 0.00079 -0.00597 17.91805 -32.98308 -3.8417 57.75981 0.26846 0.36245 -7.36142 -0.57015 -0.14457 119.85487 -78.04935 -82.74522 11.7612 102.16765 -0.84692 -9.37474 147.19001 76.78165 88.4549 9.5585 -68.80988 4.80566 9.10477 48.58631 -2.37866 -7.66046 -19.62061 -7.94912 -4.97479 -3.337 50.02254 5.74789 5.32582 -24.05406 -8.59939 5.08211 3.45872
0.00864 0.00078 -0.00638 18.03808 -32.88718 -3.80373 57.66947 0.2707 0.38278 -7.45864 -0.66581 -0.14599 119.37255 -78.21309 -82.84596 11.68968 102.13817 -0.79195 -9.32402 145.9278 76.86018 88.73409 9.32489 -68.69081 4.4973 8.96899 48.44618 -2.5364 -8.1984 -19.63614 -7.9013 -4.92358 -3.31137 49.9196 5.69668 5.38368 -24.06912 -8.59089 5.0698 3.4526
0.00866 0.00077 -0.0068 18.15561 -32.79592 -3.76793 57.58425 0.27365 0.39571 -7.55172 -0.75465 -0.14794 118.61195 -78.37097 -83.00267 11.59031 102.09967 -0.74432 -9.29662 144.49084 76.96815 88.34608 9.09793 -68.52013 4.14962 8.80466 48.31245 -2.68979 -8.71947 -19.65261 -7.85488 -4.87541 -3.28665 49.82038 5.65 5.45451 -24.0837 -8.57926 5.05605 3.44548
0.00875 0.00078 -0.00728 18.27293 -32.71363 -3.73471 57.51597 0.28301 0.40242 -7.64129 -0.84354 -0.14616 119.48974 -78.52252 -83.03439 11.61942 102.15934 -0.64613 -9.16278 144.49286 76.91732 91.54086 8.90252 -68.59534 4.20615 8.84612 48.17246 -2.85697 -9.33823 -19.65493 -7.79954 -4.81816 -3.25686 49.72296 5.60413 5.52567 -24.09388 -8.56629 5.0422 3.43853
0.00867 0.00073 -0.00761 18.39059 -32.61039 -3.69522 57.40821 0.27861 0.42924 -7.7383 -0.93467 -0.15218 116.92213 -78.66798 -83.25534 11.399 102.00752 -0.68102 -9.23997 141.40631 77.16865 87.40428 8.67355 -68.19317 3.3899 8.46283 48.04451 -2.99592 -9.75254 -19.688 -7.76261 -4.77878 -3.23742 49.62094 5.55509 5.58947 -24.11401 -8.55768 5.02913 3.4316
0.00816 0.00052 -0.0076 18.51989 -32.44162 -3.63509 57.19205 0.23011 0.48119 -7.87404 -1.03742 -0.1811 104.66711 -79.00699 -84.56712 10.30226 101.27335 -0.83184 -10.01168 129.95747 78.55911 60.93827 7.9773 -66.10774 0.21591 6.78241 47.93842 -3.05661 -9.58715 -19.80396 -7.78056 -4.79453 -3.24968 49.49692 5.49123 5.63808 -24.16074 -8.5617 5.01955 3.42553
0.00748 0.00024 -0.00745 18.64736 -32.25437 -3.56975 56.93738 0.16907 0.55683 -8.01168 -1.14012 -0.21755 89.00657 -79.29787 -85.97141 8.98736 100.32724 -1.15491 -10.97596 115.41656 80.19411 27.49081 7.3121 -63.60475 -3.82971 4.7003 47.84729 -3.08868 -9.22008 -19.95057 -7.81617 -4.82742 -3.27177 49.37072 5.42599 5.67995 -24.21728 -8.56947 5.01035 3.41921
0.00686 -2e-05 -0.00734 18.76688 -32.08327 -3.51012 56.70381 0.11897 0.63938 -8.13602 -1.23648 -0.2495 75.0456 -79.46893 -86.96004 7.90125 99.48382 -1.57567 -11.77495 102.21956 81.51209 -1.27189 6.89807 -61.54784 -7.49901 2.89426 47.75914 -3.13371 -8.95816 -20.08393 -7.84061 -4.84875 -3.28707 49.25344 5.36753 5.7271 -24.26947 -8.57383 4.99946 3.41205
0.00631 -0.00022 -0.00729 18.9218 -31.87932 -3.43639 56.45594 0.04764 0.65074 -8.31809 -1.35982 -0.28599 60.39314 -80.24097 -89.50408 6.27988 98.61784 -1.28978 -12.89518 89.19752 83.70058 -36.30255 5.40007 -58.44059 -11.11592 0.69878 47.63056 -3.17925 -8.6394 -20.21563 -7.87806 -4.88543 -3.3119 49.10289 5.28384 5.76684 -24.32168 -8.58534 4.99472 3.40874
0.00558 -0.00057 -0.00709 19.00489 -31.73905 -3.39055 56.22695 0.01627 0.81226 -8.37417 -1.42728 -0.31486 46.42752 -79.74722 -88.85687 5.70599 97.74207 -2.47111 -13.40126 75.17062 84.13342 -60.0961 6.12051 -57.38099 -15.01361 -0.78931 47.58832 -3.21662 -8.39048 -20.35671 -7.89301 -4.89487 -3.31957 49.02054 5.25111 5.81709 -24.37569 -8.58314 4.9777 3.39765
